<?xml version="1.0" encoding="UTF-8"?>
<!DOCTYPE svg PUBLIC "-//W3C//DTD SVG 1.1//EN" "http://www.w3.org/Graphics/SVG/1.1/DTD/svg11.dtd">
<svg xmlns="http://www.w3.org/2000/svg" version="1.1" width="512px" height="512px" style="shape-rendering:geometricPrecision; text-rendering:geometricPrecision; image-rendering:optimizeQuality; fill-rule:evenodd; clip-rule:evenodd" xmlns:xlink="http://www.w3.org/1999/xlink">
<g><path style="opacity:0.98" fill="#cb8251" d="M 247.5,-0.5 C 252.5,-0.5 257.5,-0.5 262.5,-0.5C 270.976,2.4687 277.142,8.13536 281,16.5C 282.447,34.778 282.947,53.1113 282.5,71.5C 264.498,70.1828 246.498,70.1828 228.5,71.5C 228.053,53.1113 228.553,34.778 230,16.5C 233.77,8.56131 239.603,2.89464 247.5,-0.5 Z"/></g>
<g><path style="opacity:0.985" fill="#cb8251" d="M 144.5,105.5 C 144.631,106.239 144.464,106.906 144,107.5C 130,117.5 118,129.5 108,143.5C 107.329,144.252 106.496,144.586 105.5,144.5C 94.5354,133.035 83.3687,121.702 72,110.5C 64.2868,98.1532 64.7868,86.1532 73.5,74.5C 85.2057,64.8177 97.539,63.9844 110.5,72C 121.702,83.3687 133.035,94.5354 144.5,105.5 Z"/></g>
<g><path style="opacity:0.988" fill="#cb8251" d="M 405.5,144.5 C 404.761,144.631 404.094,144.464 403.5,144C 393.5,130 381.5,118 367.5,108C 366.748,107.329 366.414,106.496 366.5,105.5C 377.965,94.5354 389.298,83.3687 400.5,72C 416.975,62.3622 430.808,65.1955 442,80.5C 446.035,91.0561 445.035,101.056 439,110.5C 427.631,121.702 416.465,133.035 405.5,144.5 Z"/></g>
<g><path style="opacity:1" fill="#f19b1f" d="M 282.5,71.5 C 313.297,76.2419 341.297,87.5753 366.5,105.5C 366.414,106.496 366.748,107.329 367.5,108C 381.5,118 393.5,130 403.5,144C 404.094,144.464 404.761,144.631 405.5,144.5C 423.425,169.703 434.758,197.703 439.5,228.5C 440.817,246.498 440.817,264.498 439.5,282.5C 434.758,313.297 423.425,341.297 405.5,366.5C 404.761,366.369 404.094,366.536 403.5,367C 393.5,381 381.5,393 367.5,403C 366.748,403.671 366.414,404.504 366.5,405.5C 341.297,423.425 313.297,434.758 282.5,439.5C 264.496,440.8 246.496,440.8 228.5,439.5C 197.703,434.758 169.703,423.425 144.5,405.5C 144.631,404.761 144.464,404.094 144,403.5C 130,393.5 118,381.5 108,367.5C 107.329,366.748 106.496,366.414 105.5,366.5C 88.1823,342.181 77.1823,315.181 72.5,285.5C 69.943,265.475 69.943,245.475 72.5,225.5C 77.1823,195.819 88.1823,168.819 105.5,144.5C 106.496,144.586 107.329,144.252 108,143.5C 118,129.5 130,117.5 144,107.5C 144.464,106.906 144.631,106.239 144.5,105.5C 169.703,87.5753 197.703,76.2419 228.5,71.5C 246.498,70.1828 264.498,70.1828 282.5,71.5 Z M 237.5,116.5 C 237.5,146.167 237.5,175.833 237.5,205.5C 235.883,206.038 234.216,206.371 232.5,206.5C 211.5,186.167 190.833,165.5 170.5,144.5C 189.933,128.568 212.267,119.235 237.5,116.5 Z M 273.5,116.5 C 298.733,119.235 321.067,128.568 340.5,144.5C 320.167,165.5 299.5,186.167 278.5,206.5C 276.883,205.962 275.216,205.629 273.5,205.5C 273.5,175.833 273.5,146.167 273.5,116.5 Z M 367.5,169.5 C 378.583,185.338 386.75,202.672 392,221.5C 393.288,226.773 394.122,232.106 394.5,237.5C 364.833,237.5 335.167,237.5 305.5,237.5C 304.962,235.883 304.629,234.216 304.5,232.5C 325.167,211.167 346.167,190.167 367.5,169.5 Z M 144.5,170.5 C 165.5,190.833 186.167,211.5 206.5,232.5C 206.371,234.216 206.038,235.883 205.5,237.5C 175.833,237.5 146.167,237.5 116.5,237.5C 119.235,212.263 128.569,189.93 144.5,170.5 Z M 116.5,273.5 C 146.167,273.5 175.833,273.5 205.5,273.5C 206.038,275.117 206.371,276.784 206.5,278.5C 186.167,299.5 165.5,320.167 144.5,340.5C 128.569,321.07 119.235,298.737 116.5,273.5 Z M 305.5,273.5 C 335.167,273.5 364.833,273.5 394.5,273.5C 391.764,298.739 382.431,321.073 366.5,340.5C 345.5,320.167 324.833,299.5 304.5,278.5C 304.629,276.784 304.962,275.117 305.5,273.5 Z M 232.5,304.5 C 234.216,304.629 235.883,304.962 237.5,305.5C 237.5,335.167 237.5,364.833 237.5,394.5C 212.263,391.765 189.93,382.431 170.5,366.5C 190.833,345.5 211.5,324.833 232.5,304.5 Z M 278.5,304.5 C 299.5,324.833 320.167,345.5 340.5,366.5C 321.07,382.431 298.737,391.765 273.5,394.5C 273.5,364.833 273.5,335.167 273.5,305.5C 275.216,305.371 276.883,305.038 278.5,304.5 Z"/></g>
<g><path style="opacity:1" fill="#a56a43" d="M 273.5,116.5 C 273.5,146.167 273.5,175.833 273.5,205.5C 261.477,201.592 249.477,201.592 237.5,205.5C 237.5,175.833 237.5,146.167 237.5,116.5C 237.611,115.883 237.944,115.383 238.5,115C 249.5,114.333 260.5,114.333 271.5,115C 272.416,115.278 273.082,115.778 273.5,116.5 Z"/></g>
<g><path style="opacity:1" fill="#a56a43" d="M 340.5,144.5 C 343.14,144.954 345.473,146.121 347.5,148C 354.739,154.736 361.406,161.902 367.5,169.5C 346.167,190.167 325.167,211.167 304.5,232.5C 301.535,229.676 299.035,226.343 297,222.5C 291.343,216.304 285.176,210.97 278.5,206.5C 299.5,186.167 320.167,165.5 340.5,144.5 Z"/></g>
<g><path style="opacity:1" fill="#a56a43" d="M 170.5,144.5 C 190.833,165.5 211.5,186.167 232.5,206.5C 229.676,209.465 226.343,211.965 222.5,214C 216.304,219.657 210.97,225.824 206.5,232.5C 186.167,211.5 165.5,190.833 144.5,170.5C 144.389,169.883 144.056,169.383 143.5,169C 151.333,159.833 159.833,151.333 169,143.5C 169.383,144.056 169.883,144.389 170.5,144.5 Z"/></g>
<g><path style="opacity:1" fill="#f19c1f" d="M 273.5,205.5 C 275.216,205.629 276.883,205.962 278.5,206.5C 285.176,210.97 291.343,216.304 297,222.5C 299.035,226.343 301.535,229.676 304.5,232.5C 304.629,234.216 304.962,235.883 305.5,237.5C 309.392,249.484 309.392,261.484 305.5,273.5C 304.962,275.117 304.629,276.784 304.5,278.5C 301.535,281.324 299.035,284.657 297,288.5C 291.343,294.696 285.176,300.03 278.5,304.5C 276.883,305.038 275.216,305.371 273.5,305.5C 261.479,309.392 249.479,309.392 237.5,305.5C 235.883,304.962 234.216,304.629 232.5,304.5C 229.676,301.535 226.343,299.035 222.5,297C 216.304,291.343 210.97,285.176 206.5,278.5C 206.371,276.784 206.038,275.117 205.5,273.5C 201.549,261.486 201.549,249.486 205.5,237.5C 206.038,235.883 206.371,234.216 206.5,232.5C 210.97,225.824 216.304,219.657 222.5,214C 226.343,211.965 229.676,209.465 232.5,206.5C 234.216,206.371 235.883,206.038 237.5,205.5C 249.477,201.592 261.477,201.592 273.5,205.5 Z"/></g>
<g><path style="opacity:0.993" fill="#cb8251" d="M 72.5,225.5 C 69.943,245.475 69.943,265.475 72.5,285.5C 71.596,284.791 71.2627,283.791 71.5,282.5C 53.1113,282.947 34.778,282.447 16.5,281C 8.56131,277.23 2.89464,271.397 -0.5,263.5C -0.5,258.167 -0.5,252.833 -0.5,247.5C 2.89464,239.603 8.56131,233.77 16.5,230C 34.778,228.553 53.1113,228.053 71.5,228.5C 71.2627,227.209 71.596,226.209 72.5,225.5 Z"/></g>
<g><path style="opacity:0.993" fill="#cb8251" d="M 439.5,228.5 C 457.889,228.053 476.222,228.553 494.5,230C 502.865,233.858 508.531,240.024 511.5,248.5C 511.5,253.167 511.5,257.833 511.5,262.5C 507.945,272.55 500.945,279.05 490.5,282C 473.503,282.5 456.503,282.667 439.5,282.5C 440.817,264.498 440.817,246.498 439.5,228.5 Z"/></g>
<g><path style="opacity:1" fill="#fffdfb" d="M 247.5,229.5 C 252.297,229.121 256.964,229.621 261.5,231C 266.651,240.688 263.651,246.022 252.5,247C 247.886,249.39 245.719,253.223 246,258.5C 243.647,263.426 239.814,265.26 234.5,264C 232.43,263.052 230.93,261.552 230,259.5C 228.49,245.185 234.323,235.185 247.5,229.5 Z"/></g>
<g><path style="opacity:1" fill="#a56a43" d="M 116.5,237.5 C 146.167,237.5 175.833,237.5 205.5,237.5C 201.549,249.486 201.549,261.486 205.5,273.5C 175.833,273.5 146.167,273.5 116.5,273.5C 115.778,273.082 115.278,272.416 115,271.5C 114.333,260.5 114.333,249.5 115,238.5C 115.383,237.944 115.883,237.611 116.5,237.5 Z"/></g>
<g><path style="opacity:1" fill="#a56a43" d="M 305.5,237.5 C 335.167,237.5 364.833,237.5 394.5,237.5C 395.117,237.611 395.617,237.944 396,238.5C 396.667,249.5 396.667,260.5 396,271.5C 395.722,272.416 395.222,273.082 394.5,273.5C 364.833,273.5 335.167,273.5 305.5,273.5C 309.392,261.484 309.392,249.484 305.5,237.5 Z"/></g>
<g><path style="opacity:1" fill="#a56a43" d="M 206.5,278.5 C 210.97,285.176 216.304,291.343 222.5,297C 226.343,299.035 229.676,301.535 232.5,304.5C 211.5,324.833 190.833,345.5 170.5,366.5C 169.883,366.611 169.383,366.944 169,367.5C 161.697,361.198 154.697,354.532 148,347.5C 146.121,345.473 144.954,343.14 144.5,340.5C 165.5,320.167 186.167,299.5 206.5,278.5 Z"/></g>
<g><path style="opacity:1" fill="#a56a43" d="M 304.5,278.5 C 324.833,299.5 345.5,320.167 366.5,340.5C 366.046,343.14 364.879,345.473 363,347.5C 356.303,354.532 349.303,361.198 342,367.5C 341.617,366.944 341.117,366.611 340.5,366.5C 320.167,345.5 299.5,324.833 278.5,304.5C 285.176,300.03 291.343,294.696 297,288.5C 299.035,284.657 301.535,281.324 304.5,278.5 Z"/></g>
<g><path style="opacity:1" fill="#a56a43" d="M 237.5,305.5 C 249.479,309.392 261.479,309.392 273.5,305.5C 273.5,335.167 273.5,364.833 273.5,394.5C 273.082,395.222 272.416,395.722 271.5,396C 260.5,396.667 249.5,396.667 238.5,396C 237.944,395.617 237.611,395.117 237.5,394.5C 237.5,364.833 237.5,335.167 237.5,305.5 Z"/></g>
<g><path style="opacity:0.986" fill="#cb8251" d="M 105.5,366.5 C 106.496,366.414 107.329,366.748 108,367.5C 118,381.5 130,393.5 144,403.5C 144.464,404.094 144.631,404.761 144.5,405.5C 133.035,416.465 121.702,427.631 110.5,439C 93.9839,448.638 80.1506,445.805 69,430.5C 64.8966,419.925 65.8966,409.925 72,400.5C 83.3687,389.298 94.5354,377.965 105.5,366.5 Z"/></g>
<g><path style="opacity:0.986" fill="#cb8251" d="M 405.5,366.5 C 416.465,377.965 427.631,389.298 439,400.5C 448.63,417.001 445.796,430.834 430.5,442C 419.944,446.035 409.944,445.035 400.5,439C 389.298,427.631 377.965,416.465 366.5,405.5C 366.414,404.504 366.748,403.671 367.5,403C 381.5,393 393.5,381 403.5,367C 404.094,366.536 404.761,366.369 405.5,366.5 Z"/></g>
<g><path style="opacity:0.98" fill="#cb8251" d="M 228.5,439.5 C 246.496,440.8 264.496,440.8 282.5,439.5C 282.947,457.889 282.447,476.222 281,494.5C 277.142,502.865 270.976,508.531 262.5,511.5C 257.833,511.5 253.167,511.5 248.5,511.5C 240.024,508.531 233.858,502.865 230,494.5C 228.553,476.222 228.053,457.889 228.5,439.5 Z"/></g>
</svg>
