<?xml version="1.0" encoding="UTF-8"?>
<svg version="1.1" xmlns="http://www.w3.org/2000/svg" width="512" height="512">
<path d="M0 0 C4.83735148 2.61364524 8.06265925 6.09032151 9.79296875 11.28125 C9.64214844 12.22613281 9.49132812 13.17101563 9.3359375 14.14453125 C8.91061378 18.27157354 8.79408906 21.60860961 10.79296875 25.28125 C16.31735694 30.48238796 23.38828964 33.90876193 29.95361328 37.61279297 C33.95189493 39.96225615 37.626307 42.63722114 41.29296875 45.46875 C41.93298828 45.95947998 42.57300781 46.45020996 43.23242188 46.95581055 C44.48457274 47.92178767 45.73384186 48.89151359 46.97998047 49.86523438 C48.76507595 51.25946462 50.56092692 52.63868045 52.359375 54.015625 C63.45611871 62.56249179 74.35750927 71.50906298 84.1015625 81.58984375 C85.77920642 83.26748767 87.52536406 84.77292196 89.35546875 86.28125 C92.45862838 88.89151403 95.03757486 91.74258305 97.65625 94.83203125 C99.8475769 97.34384472 102.11868587 99.75875872 104.41186523 102.17700195 C111.05137074 109.20126762 117.10472897 116.46533149 122.79296875 124.28125 C123.24994141 124.90306152 123.70691406 125.52487305 124.17773438 126.16552734 C156.71627185 170.60330671 178.52625097 221.47151558 185.79296875 276.28125 C185.89593262 277.04018555 185.99889648 277.79912109 186.10498047 278.58105469 C187.62158388 290.25866133 187.97582461 301.89471619 187.98046875 313.65625 C187.98196426 314.67022354 187.98196426 314.67022354 187.98348999 315.7046814 C187.98236974 322.39575858 187.74286031 328.63200905 186.79296875 335.28125 C128.38296875 335.28125 69.97296875 335.28125 9.79296875 335.28125 C9.79296875 346.50125 9.79296875 357.72125 9.79296875 369.28125 C76.78296875 369.28125 143.77296875 369.28125 212.79296875 369.28125 C211.9216508 373.63783975 210.67003204 377.17778492 208.86328125 381.16796875 C208.56137375 381.84543152 208.25946625 382.52289429 207.94841003 383.22088623 C206.94330269 385.47246629 205.93072513 387.72060126 204.91796875 389.96875 C204.20301044 391.56567604 203.48841856 393.16276619 202.77416992 394.76000977 C196.45245091 408.87944616 190.07501676 422.97427318 183.68139648 437.0612793 C180.0611948 445.039619 176.45199856 453.02167138 172.91015625 461.03515625 C172.31862988 462.36988473 171.72707797 463.7046019 171.13549805 465.03930664 C170.07509067 467.43264865 169.02308392 469.82908651 167.97583008 472.22827148 C161.16608846 487.60605082 153.45021417 499.88485772 137.79296875 507.28125 C128.93391497 510.67160406 120.92464715 511.86262978 111.48587036 511.7959137 C110.21127799 511.80285922 108.93668562 511.80980475 107.62346923 511.81696075 C104.12437185 511.83541899 100.62570253 511.82934214 97.12658858 511.81880772 C93.33777402 511.81176727 89.54904318 511.82785015 85.76025391 511.84080505 C78.3527625 511.86237024 70.94542518 511.86233739 63.53791274 511.85417951 C57.51287888 511.84786164 51.48788971 511.84903287 45.46285629 511.85545158 C44.6030358 511.85635324 43.7432153 511.85725489 42.85733964 511.85818387 C41.11022154 511.86003521 39.36310345 511.86189777 37.61598538 511.86377143 C21.25801285 511.88032404 4.90012674 511.87165257 -11.45784058 511.85478585 C-26.39756549 511.84009341 -41.33708921 511.85471537 -56.27678822 511.88355602 C-71.64659278 511.91300418 -87.01630466 511.92390638 -102.38613617 511.91437382 C-104.12718652 511.91335135 -105.86823688 511.91235673 -107.60928726 511.9113903 C-108.46574414 511.91091391 -109.32220102 511.91043752 -110.20461114 511.9099467 C-116.21554374 511.9077896 -122.22638787 511.91754907 -128.23730087 511.93216133 C-135.57267494 511.94974576 -142.90779274 511.9494803 -150.24315701 511.92680968 C-153.97985422 511.91572219 -157.71610095 511.91237851 -161.45277786 511.93111038 C-182.84201103 512.03028662 -198.95084596 511.35152254 -215.4140625 496.2578125 C-226.78550289 484.56023138 -230.30399642 470.71285136 -230.66796875 454.9296875 C-229.84752662 441.11470433 -223.53373452 427.18504232 -218.95703125 414.28125 C-218.31978298 412.47284275 -217.68306235 410.66424949 -217.046875 408.85546875 C-215.10209739 403.33008226 -213.15454538 397.80567255 -211.20703125 392.28125 C-208.56703125 384.69125 -205.92703125 377.10125 -203.20703125 369.28125 C-144.79703125 369.28125 -86.38703125 369.28125 -26.20703125 369.28125 C-26.20703125 358.06125 -26.20703125 346.84125 -26.20703125 335.28125 C-93.19703125 335.28125 -160.18703125 335.28125 -229.20703125 335.28125 C-222.54304735 327.50660211 -222.54304735 327.50660211 -219.76953125 324.84375 C-217.33541037 322.45223955 -215.05314292 319.99669202 -212.83203125 317.40625 C-210.2406892 314.3965747 -207.53448342 311.57036384 -204.70703125 308.78125 C-201.35376767 305.46750299 -198.20134981 302.06471439 -195.1328125 298.48828125 C-192.81292455 295.82958613 -190.41642251 293.24516206 -188.01953125 290.65625 C-178.68650046 280.534148 -169.87835249 269.97211349 -161.20703125 259.28125 C-160.19981491 258.05549947 -159.19196049 256.83027308 -158.18359375 255.60546875 C-151.14771801 247.03816819 -144.36079219 238.32463777 -137.77685547 229.40576172 C-136.13541131 227.1843236 -134.48602454 224.96893036 -132.8359375 222.75390625 C-91.2391514 166.78021637 -55.921577 106.17011752 -31.64453125 40.65625 C-31.21462891 39.5314624 -30.78472656 38.4066748 -30.34179688 37.24780273 C-27.7835042 30.1807792 -26.64329937 23.78036176 -26.37963867 16.26416016 C-26.09783334 11.39414951 -25.03630938 8.14023798 -21.5234375 4.5703125 C-15.19503121 -1.03447145 -8.38314092 -2.73008483 0 0 Z " fill="#F48A42" transform="translate(265.20703125,0.71875)"/>
<path d="M0 0 C5.55163332 3.08424074 10.88928946 6.09272568 16.125 9.625 C16.76042725 10.05176025 17.39585449 10.47852051 18.05053711 10.91821289 C37.86934776 24.33473583 57.64276553 39.06684059 74.30859375 56.30859375 C75.98623767 57.98623767 77.73239531 59.49167196 79.5625 61 C82.66565963 63.61026403 85.24460611 66.46133305 87.86328125 69.55078125 C90.05460815 72.06259472 92.32571712 74.47750872 94.61889648 76.89575195 C101.25840199 83.92001762 107.31176022 91.18408149 113 99 C113.45697266 99.62181152 113.91394531 100.24362305 114.38476562 100.88427734 C146.9233031 145.32205671 168.73328222 196.19026558 176 251 C176.1544458 252.13840332 176.1544458 252.13840332 176.31201172 253.29980469 C177.82861513 264.97741133 178.18285586 276.61346619 178.1875 288.375 C178.18899551 289.38897354 178.18899551 289.38897354 178.19052124 290.4234314 C178.18940099 297.11450858 177.94989156 303.35075905 177 310 C118.59 310 60.18 310 0 310 C0 207.7 0 105.4 0 0 Z " fill="#195C85" transform="translate(275,26)"/>
<path d="M0 0 C135.3 0 270.6 0 410 0 C409.08437248 4.57813759 407.67019852 8.26817719 405.71875 12.44140625 C405.38918304 13.15768692 405.05961609 13.87396759 404.72006226 14.61195374 C403.65175143 16.93116892 402.57609688 19.24688855 401.5 21.5625 C400.39682737 23.94870705 399.29518296 26.33561479 398.19381714 28.72265625 C397.46747146 30.29682802 396.74052533 31.87072289 396.01296997 33.44433594 C394.02018447 37.76061157 392.05938489 42.08806036 390.1484375 46.44140625 C389.75333984 47.33980225 389.35824219 48.23819824 388.95117188 49.16381836 C388.26603637 50.73070833 387.58696841 52.30027569 386.91601562 53.87329102 C382.41994858 64.10944789 376.02086383 73.56626847 366.5 79.625 C365.96375 79.99367188 365.4275 80.36234375 364.875 80.7421875 C355.07151814 87.06988943 344.12500275 88.5954692 332.69290161 88.5146637 C331.41830924 88.52160922 330.14371687 88.52855475 328.83050048 88.53571075 C325.3314031 88.55416899 321.83273378 88.54809214 318.33361983 88.53755772 C314.54480527 88.53051727 310.75607443 88.54660015 306.96728516 88.55955505 C299.55979375 88.58112024 292.15245643 88.58108739 284.74494399 88.57292951 C278.71991013 88.56661164 272.69492096 88.56778287 266.66988754 88.57420158 C265.81006705 88.57510324 264.95024655 88.57600489 264.06437089 88.57693387 C262.31725279 88.57878521 260.5701347 88.58064777 258.82301663 88.58252143 C242.4650441 88.59907404 226.10715799 88.59040257 209.74919067 88.57353585 C194.80946576 88.55884341 179.86994204 88.57346537 164.93024303 88.60230602 C149.56043847 88.63175418 134.19072659 88.64265638 118.82089508 88.63312382 C117.07984473 88.63210135 115.33879437 88.63110673 113.59774399 88.6301403 C112.31305867 88.62942572 112.31305867 88.62942572 111.00242011 88.6286967 C104.99148751 88.6265396 98.98064338 88.63629907 92.96973038 88.65091133 C85.63435631 88.66849576 78.29923851 88.6682303 70.96387424 88.64555968 C67.22717703 88.63447219 63.4909303 88.63112851 59.75425339 88.64986038 C38.36502022 88.74903662 22.25618529 88.07027254 5.79296875 72.9765625 C-4.8678481 62.00998608 -9.38410434 48.30619426 -9.37353516 33.29443359 C-9.04699349 21.29612042 -4.59661705 11.03188091 0 0 Z " fill="#F8BE59" transform="translate(44,424)"/>
<path d="M0 0 C0.33 0 0.66 0 1 0 C1 101.64 1 203.28 1 308 C-65.99 308 -132.98 308 -202 308 C-195.3360161 300.22535211 -195.3360161 300.22535211 -192.5625 297.5625 C-190.12837912 295.17098955 -187.84611167 292.71544202 -185.625 290.125 C-183.03365795 287.1153247 -180.32745217 284.28911384 -177.5 281.5 C-174.14673642 278.18625299 -170.99431856 274.78346439 -167.92578125 271.20703125 C-165.6058933 268.54833613 -163.20939126 265.96391206 -160.8125 263.375 C-151.47946921 253.252898 -142.67132124 242.69086349 -134 232 C-132.99278366 230.77424947 -131.98492924 229.54902308 -130.9765625 228.32421875 C-123.94068676 219.75691819 -117.15376094 211.04338777 -110.56982422 202.12451172 C-108.92838006 199.9030736 -107.27899329 197.68768036 -105.62890625 195.47265625 C-61.07069886 135.51400281 -24.50877745 70.67354218 0 0 Z " fill="#195C85" transform="translate(238,28)"/>
<path d="M0 0 C4.83735148 2.61364524 8.06265925 6.09032151 9.79296875 11.28125 C9.88538941 13.271454 9.91671102 15.26468091 9.91601658 17.25702953 C9.91800763 18.51354169 9.91999868 19.77005385 9.92205006 21.06464213 C9.91919683 22.46677556 9.91625122 23.86890881 9.91322327 25.27104187 C9.91365909 26.75443455 9.9145342 28.23782716 9.91581243 29.72121936 C9.91805522 33.80761609 9.91403904 37.89398677 9.90903437 41.98038018 C9.90472698 46.38323157 9.9061765 50.78608142 9.90693665 55.18893433 C9.9074617 62.82055193 9.90431686 70.45216101 9.89869881 78.08377647 C9.89058126 89.11789223 9.88796832 100.15200385 9.88671082 111.18612228 C9.8845207 129.08705586 9.8778617 146.9879849 9.8684082 164.88891602 C9.85923305 182.28084287 9.85215272 199.67276848 9.84790039 217.06469727 C9.84763767 218.13624051 9.84737494 219.20778375 9.84710426 220.311798 C9.84579925 225.68726767 9.84453553 231.06273735 9.84329236 236.43820703 C9.83292099 281.052558 9.81502908 325.66690341 9.79296875 370.28125 C-2.08703125 370.28125 -13.96703125 370.28125 -26.20703125 370.28125 C-26.27483151 324.92072176 -26.3285499 279.56020566 -26.36022724 234.19963681 C-26.36397942 228.84606313 -26.36786238 223.49248955 -26.37182617 218.13891602 C-26.3726131 217.07310272 -26.37340003 216.00728941 -26.37421081 214.90917874 C-26.38726958 197.6450329 -26.41092602 180.38091699 -26.43848964 163.11678892 C-26.46653073 145.40607263 -26.48320477 127.69537203 -26.48929673 109.98463446 C-26.49341586 99.05358373 -26.50643222 88.12261758 -26.53078065 77.19159288 C-26.54662183 69.69876722 -26.55143528 62.20598537 -26.54753538 54.71314418 C-26.54561132 50.38827486 -26.54858911 46.0635535 -26.56464767 41.7387104 C-26.5792433 37.77897719 -26.57998586 33.81949147 -26.56972793 29.85974688 C-26.56846006 28.42759453 -26.57226856 26.99542676 -26.5816808 25.56330477 C-26.67701971 10.16083621 -26.67701971 10.16083621 -21.453125 4.3203125 C-20.85628906 3.85367187 -20.25945312 3.38703125 -19.64453125 2.90625 C-19.04511719 2.42414063 -18.44570312 1.94203125 -17.828125 1.4453125 C-12.93991097 -2.06477854 -5.59183982 -1.82105934 0 0 Z " fill="#FCD582" transform="translate(265.20703125,0.71875)"/>
<path d="M0 0 C4.09391578 2.80459815 7.0230551 6.27315303 10 10.1875 C10.70177368 11.09737671 10.70177368 11.09737671 11.41772461 12.02563477 C12.42408471 13.33219833 13.42783082 14.64077868 14.42919922 15.95117188 C16.0259773 18.03388274 17.63833741 20.10371602 19.25390625 22.171875 C26.26699407 31.18736894 32.84758132 40.37743652 39 50 C39.40283203 50.62696777 39.80566406 51.25393555 40.22070312 51.89990234 C47.15752304 62.73112552 53.71166387 73.7806341 60 85 C60.44988281 85.79970215 60.89976562 86.5994043 61.36328125 87.42333984 C72.85087951 108.03563341 82.45344315 130.30794711 89 153 C89.24363281 153.83917969 89.48726563 154.67835938 89.73828125 155.54296875 C90.49744325 158.20976861 91.22397951 160.88315272 91.9375 163.5625 C92.27382446 164.77691772 92.27382446 164.77691772 92.61694336 166.01586914 C94.00372565 171.49674533 94.33871534 176.45515593 93 182 C91.1866441 184.39362978 90.01763981 184.83701046 87.09765625 185.3046875 C83.55945327 185.5287078 81.79366238 185.59343312 78.86328125 183.40234375 C76.50220292 180.35818616 75.98255392 177.89269392 75.1875 174.125 C65.22122199 130.40789092 43.92380479 86.36912601 16.9453125 50.5859375 C15.06123412 48.08139957 13.25035574 45.537524 11.44702148 42.97485352 C7.5235469 37.40715484 3.47356994 31.96890318 -0.75 26.625 C-1.44343506 25.74352295 -1.44343506 25.74352295 -2.15087891 24.84423828 C-4.08026192 22.39821788 -6.02169692 19.97420616 -8.02734375 17.58984375 C-10.6830534 14.34675362 -11.90442569 12.51262583 -12.6875 8.3125 C-11.21550009 1.22013682 -6.95149527 -1.1172046 0 0 Z " fill="#7DC8C7" transform="translate(321,97)"/>
<path d="M0 0 C1.15530212 -0.0071553 2.31060425 -0.01431061 3.50091553 -0.02168274 C4.77986694 -0.02437164 6.05881836 -0.02706055 7.37652588 -0.02983093 C8.72815121 -0.03609291 10.0797748 -0.04273947 11.43139648 -0.04974365 C15.11336773 -0.06718051 18.79532596 -0.07771313 22.4773283 -0.08594918 C24.77678085 -0.09109463 27.07622933 -0.09717062 29.37567902 -0.10346031 C36.5672662 -0.12252158 43.75884306 -0.13674959 50.95045066 -0.14507228 C59.25692536 -0.15484318 67.56313347 -0.18115469 75.86951423 -0.22157317 C82.28569764 -0.25172417 88.7018046 -0.26654026 95.11805749 -0.26985329 C98.95191014 -0.27220538 102.7854783 -0.2811855 106.61925507 -0.30631447 C110.22755327 -0.32958213 113.83537946 -0.33383405 117.44373322 -0.32355309 C119.39777157 -0.32282099 121.35178587 -0.34192257 123.3057251 -0.36161804 C124.47230652 -0.35467422 125.63888794 -0.34773041 126.84082031 -0.34057617 C127.85257198 -0.34296453 128.86432365 -0.34535288 129.90673447 -0.34781361 C133.4631817 0.28824629 135.13198609 1.62044549 137.67437744 4.14717102 C138.82326262 8.09646381 139.1056714 10.17675961 137.42437744 13.95967102 C135.67437744 16.14717102 135.67437744 16.14717102 132.67437744 18.14717102 C130.16400337 18.40443993 130.16400337 18.40443993 127.10824585 18.41459656 C125.37116867 18.42739151 125.37116867 18.42739151 123.59899902 18.44044495 C122.32723816 18.43953857 121.05547729 18.4386322 119.74517822 18.43769836 C118.3932559 18.44368227 117.041337 18.4504875 115.68942261 18.45805359 C112.01580974 18.4757355 108.34229001 18.4804099 104.66863871 18.48168516 C101.60205439 18.48358379 98.53549178 18.49094095 95.46891582 18.49802935 C88.23351815 18.51431943 80.99817025 18.51919776 73.76275635 18.51777649 C66.29923126 18.51657505 58.83599536 18.53767578 51.37254345 18.56926382 C44.9648007 18.59541722 38.55715244 18.60614418 32.14935672 18.60486567 C28.32225756 18.60435573 24.4954153 18.61005608 20.66836929 18.63122177 C17.06822962 18.65058854 13.46859231 18.65073986 9.86843491 18.63618851 C7.91920287 18.6331009 5.96997087 18.64978805 4.02081299 18.66706848 C2.27527634 18.65448502 2.27527634 18.65448502 0.49447632 18.64164734 C-1.01925473 18.64328164 -1.01925473 18.64328164 -2.56356621 18.64494896 C-6.07979898 18.01125331 -7.76466882 16.58623689 -10.32562256 14.14717102 C-11.76993111 11.25855393 -11.70250762 9.35069401 -11.32562256 6.14717102 C-8.88812256 3.33467102 -8.88812256 3.33467102 -6.32562256 1.14717102 C-4.60836908 -0.57008246 -2.34483894 0.00991902 0 0 Z " fill="#F48B42" transform="translate(74.32562255859375,449.8528289794922)"/>
<path d="M0 0 C0.82638977 -0.00570007 1.65277954 -0.01140015 2.50421143 -0.01727295 C4.25604979 -0.02672851 6.00790598 -0.03325913 7.75976562 -0.03710938 C10.42870582 -0.04678646 13.09686656 -0.07779206 15.765625 -0.109375 C17.46874543 -0.11590804 19.17187137 -0.12115733 20.875 -0.125 C21.66896179 -0.1373468 22.46292358 -0.1496936 23.28094482 -0.16241455 C28.14844878 -0.14303765 31.50066326 0.48069532 35.703125 3.203125 C37.95965789 6.58792433 37.79285648 8.2135972 37.48046875 12.16796875 C36.26202409 15.35796709 34.58660095 16.39018333 31.703125 18.203125 C28.60713298 18.78648738 25.56527165 18.76413164 22.421875 18.734375 C21.53077026 18.7382019 20.63966553 18.74202881 19.72155762 18.74597168 C17.84219225 18.74868717 15.96278885 18.7413514 14.08349609 18.72460938 C11.21235627 18.70319386 8.34371856 18.72442261 5.47265625 18.75 C3.64322366 18.74735666 1.81379263 18.74223155 -0.015625 18.734375 C-0.87095825 18.74247192 -1.7262915 18.75056885 -2.60754395 18.75891113 C-6.69572735 18.69482532 -8.78744654 18.52485847 -12.32177734 16.29272461 C-14.92337481 13.54030524 -15.30692644 11.84543084 -15.57421875 8.171875 C-15.08999651 4.73457909 -12.93347562 3.22656269 -10.296875 1.203125 C-7.0716339 -0.40949555 -3.54432146 0.01878034 0 0 Z " fill="#7CC7C7" transform="translate(175.296875,290.796875)"/>
<path d="M0 0 C3.01145397 2.16853504 3.74046661 4.01614428 4.3828125 7.61328125 C3.67344571 11.58573526 2.58549543 13.28559832 -0.2421875 16.11328125 C-3.16466323 17.57451911 -5.80072589 17.36104275 -9.0546875 17.42578125 C-10.88966797 17.48185547 -10.88966797 17.48185547 -12.76171875 17.5390625 C-16.8159674 17.0430882 -18.38261889 15.96227844 -21.2421875 13.11328125 C-22.83158097 9.93449431 -22.65795461 7.61760405 -22.2421875 4.11328125 C-17.27599632 -2.75174774 -7.56873505 -2.99321055 0 0 Z " fill="#F48B42" transform="translate(253.2421875,450.88671875)"/>
</svg>
